<svg version="1.1" id="Layer_1" xmlns="http://www.w3.org/2000/svg" xmlns:xlink="http://www.w3.org/1999/xlink" x="0px" y="0px"
	 width="100%" viewBox="0 0 1716 390" enable-background="new 0 0 1716 390" xml:space="preserve">
<path fill="#FEFFFE" opacity="1.000000" stroke="none" 
	d="
M1717.000000,129.000000 
	C1717.000000,216.313171 1717.000000,303.626343 1717.000000,391.000000 
	C1210.303955,391.000000 703.607910,391.000000 196.609161,390.685669 
	C200.508606,388.457336 204.616928,386.454224 205.359497,380.697998 
	C205.675018,378.850464 205.869263,377.361450 205.872421,375.872070 
	C205.928040,349.569946 205.903519,323.267395 206.084366,296.966248 
	C206.102737,294.295227 207.326752,291.632507 208.410812,288.957214 
	C210.793121,289.240723 212.782806,289.413025 214.713959,289.846161 
	C222.792664,291.658142 230.853790,293.548401 239.250183,295.589661 
	C243.506241,296.340698 247.420578,297.277557 251.363022,297.416199 
	C264.349701,297.873016 277.407257,299.144501 290.576660,295.315948 
	C303.299377,292.231781 314.485077,286.801544 324.963196,279.199768 
	C339.995087,268.304474 351.079132,254.405136 358.991974,238.002777 
	C363.646790,228.353836 368.235779,218.637863 372.135986,208.670898 
	C375.452393,200.195816 378.005310,191.365295 377.001373,181.627731 
	C376.370758,176.871857 373.576202,174.888336 369.494476,173.683014 
	C343.504639,166.008179 316.974457,163.547455 289.563995,164.996353 
	C281.088898,166.847992 273.051147,168.752121 264.629883,170.698822 
	C259.488007,173.122864 254.729706,175.504364 249.632446,177.965439 
	C227.440689,191.318649 215.082657,211.379318 208.193008,235.392014 
	C207.342239,238.357254 206.036087,241.191833 204.879547,243.671814 
	C204.228271,235.163651 203.638397,227.070633 203.125763,218.516510 
	C203.039261,212.374924 202.875504,206.694397 202.758148,200.622177 
	C202.605759,197.823242 202.406967,195.416031 202.319031,192.550262 
	C202.498917,184.359894 202.385620,176.619888 202.731186,168.900421 
	C202.860474,166.012527 204.058685,163.172485 205.030182,160.210587 
	C206.211594,159.464432 207.132355,158.818314 208.439926,158.182159 
	C213.454987,156.345169 218.204605,154.751205 222.687103,152.600494 
	C233.222290,147.545670 242.227127,140.625412 248.475494,130.086884 
	C255.537659,121.427437 257.083130,111.020058 259.759583,100.644249 
	C262.468933,88.593834 259.387787,77.290840 257.281647,65.512314 
	C252.981659,48.752823 245.957809,33.652729 233.826004,21.771574 
	C225.970642,14.078522 216.659058,7.872405 208.000000,0.999998 
	C711.000000,1.000000 1214.000000,1.000000 1717.000000,1.000000 
	C1717.000000,40.107895 1717.000000,79.097992 1716.699219,118.315491 
	C1715.797119,116.302452 1715.467651,113.943230 1714.549072,111.841385 
	C1709.636597,100.600868 1697.147095,94.169365 1684.966553,96.449249 
	C1672.896484,98.708458 1664.094971,108.826553 1663.045654,121.649361 
	C1662.053589,133.771912 1669.665894,145.594406 1680.882568,149.351654 
	C1692.560913,153.263641 1706.951294,148.521133 1713.019043,138.467361 
	C1714.769409,135.567123 1715.695801,132.169556 1717.000000,129.000000 
M1698.704102,334.885162 
	C1705.312988,332.059235 1709.370483,327.274780 1710.469849,319.612671 
	C1710.469849,319.612671 1710.368042,319.140991 1710.715698,318.380249 
	C1710.872437,297.585052 1711.029175,276.789856 1711.543823,255.126740 
	C1711.456177,249.421341 1711.368408,243.715927 1711.578735,237.116379 
	C1711.447510,226.475143 1711.394653,215.832184 1711.158813,205.193268 
	C1710.986572,197.421478 1710.573242,189.655045 1710.316040,181.391586 
	C1710.316040,181.391586 1710.008057,181.001511 1710.067139,180.338303 
	C1709.799194,179.523010 1709.531250,178.707718 1709.202393,177.158554 
	C1705.459473,168.032349 1697.450928,163.395721 1687.453125,164.566620 
	C1677.948364,165.679779 1671.535522,172.048798 1669.594360,182.720673 
	C1669.537354,227.312668 1669.375488,271.904907 1669.485596,316.496521 
	C1669.519653,330.282166 1681.266602,338.758209 1696.004395,335.699982 
	C1696.668823,335.433563 1697.333252,335.167145 1698.704102,334.885162 
M1391.643311,319.939575 
	C1394.402344,331.879150 1402.762329,337.735138 1415.077026,336.354187 
	C1425.580444,335.176361 1432.170288,327.119476 1432.192505,315.401184 
	C1432.221680,300.085541 1432.257080,284.769867 1432.253296,269.454224 
	C1432.246338,241.507645 1432.278076,213.560806 1432.159912,185.614624 
	C1432.108765,173.494614 1424.545776,165.175873 1413.359985,164.480240 
	C1401.855835,163.764816 1393.454834,170.511246 1391.303589,182.614578 
	C1391.268921,227.492752 1391.232300,272.370941 1391.218750,317.249115 
	C1391.218628,317.882111 1391.508057,318.515137 1391.643311,319.939575 
M1347.812256,210.277100 
	C1349.912720,203.963379 1352.054932,197.663208 1354.104370,191.332962 
	C1357.957520,179.431717 1352.435913,168.399612 1341.084839,165.216995 
	C1329.831543,162.061768 1318.405273,169.118500 1315.064819,180.379074 
	C1306.755493,208.389923 1298.056885,236.285660 1289.413208,264.196198 
	C1288.817383,266.120239 1287.384277,267.784943 1285.708252,270.651947 
	C1284.042969,266.622803 1282.790161,263.801758 1281.699341,260.919403 
	C1272.690308,237.115143 1263.758057,213.281570 1254.651611,189.514709 
	C1253.731812,187.114395 1252.163330,184.730087 1250.304443,182.959579 
	C1237.210571,170.488846 1217.279907,174.591339 1210.525391,191.382370 
	C1200.856934,215.416397 1191.639893,239.631851 1182.174683,263.748108 
	C1181.319092,265.928284 1180.060913,267.950500 1178.334595,271.327576 
	C1176.781372,267.558228 1175.542114,265.227783 1174.841187,262.745361 
	C1167.129639,235.436432 1159.391724,208.133972 1151.902466,180.763687 
	C1148.652832,168.887650 1138.206055,162.232651 1126.432983,165.133881 
	C1116.408203,167.604248 1109.709473,178.367615 1112.330078,188.236435 
	C1114.891846,197.883118 1117.713135,207.462418 1120.517700,217.042831 
	C1130.466064,251.026352 1140.481567,284.990234 1150.414673,318.978210 
	C1153.388306,329.152985 1162.246826,336.084961 1173.323242,336.652588 
	C1185.281616,337.265381 1196.727905,330.657257 1200.585693,321.018921 
	C1209.176025,299.557129 1217.783691,278.102112 1226.454712,256.672852 
	C1228.152588,252.477051 1230.169434,248.410355 1232.695557,242.835739 
	C1237.012573,253.581345 1240.856934,262.762207 1244.401123,272.057587 
	C1250.625244,288.381989 1256.537964,304.825806 1262.829590,321.123688 
	C1266.801392,331.412323 1276.284180,336.798981 1288.931763,336.539032 
	C1298.973145,336.332703 1308.415405,329.544769 1311.729126,319.961731 
	C1314.225586,312.742371 1316.538208,305.459351 1318.920166,298.200623 
	C1328.457031,269.140381 1337.988770,240.078583 1347.812256,210.277100 
M764.710388,280.500092 
	C764.707031,268.338654 764.699768,256.177216 764.701050,244.015793 
	C764.705872,196.368362 764.708740,148.720947 764.724670,101.073517 
	C764.727234,93.349510 762.674316,86.459259 755.915527,82.032585 
	C748.975464,77.487144 741.277771,77.129776 733.996460,80.750114 
	C726.442871,84.505806 723.391724,91.488342 723.337952,99.743790 
	C723.259827,111.738464 723.295471,123.733932 723.299072,135.729065 
	C723.302307,146.724594 723.403137,157.720734 723.311829,168.715378 
	C723.263916,174.488388 721.945374,175.622330 716.153015,175.676422 
	C712.488098,175.710663 708.823242,175.780319 705.158325,175.781906 
	C696.888489,175.785477 695.218201,174.241516 695.184021,165.869247 
	C695.100281,145.378021 695.212524,124.885902 695.100525,104.394936 
	C695.062439,97.416420 692.733398,91.250046 686.703491,87.204079 
	C679.423828,82.319603 671.624878,82.075966 663.979858,86.135414 
	C656.369385,90.176514 654.018738,97.203812 654.005859,105.424553 
	C653.973083,126.407822 653.710693,147.390869 653.711853,168.374008 
	C653.714294,213.521896 653.728149,258.670441 654.048645,303.816528 
	C654.078857,308.070679 655.486328,312.816071 657.703247,316.449341 
	C662.316406,324.009552 671.973206,326.720245 680.699951,323.948914 
	C689.552856,321.137512 695.091370,313.558746 695.109863,303.970581 
	C695.162537,276.648438 695.234985,249.325760 695.089661,222.004425 
	C695.066650,217.678970 696.680542,215.834152 700.800720,215.794891 
	C705.797424,215.747284 710.794128,215.654236 715.790833,215.651108 
	C722.390747,215.646957 723.262512,216.501862 723.270325,223.152161 
	C723.304932,252.473633 723.226624,281.795532 723.361938,311.116486 
	C723.422058,324.144684 731.641968,332.347656 744.096985,332.327454 
	C756.495789,332.307343 764.613525,323.946594 764.699463,310.988190 
	C764.764709,301.159271 764.710754,291.329498 764.710388,280.500092 
M1524.425537,107.357201 
	C1521.045166,103.866859 1518.289551,99.000984 1514.173096,97.131348 
	C1498.789429,90.144531 1484.563843,100.050240 1484.538452,117.099716 
	C1484.480713,155.750610 1484.424072,194.401535 1484.408813,233.052460 
	C1484.397949,260.709351 1484.335327,288.367126 1484.535034,316.022766 
	C1484.625732,328.548340 1492.998291,336.721771 1504.850098,336.558472 
	C1517.699707,336.381470 1525.755249,328.318451 1525.794556,315.546265 
	C1525.827393,304.884644 1526.317749,294.191803 1525.661255,283.571136 
	C1525.154297,275.366882 1529.514893,271.076080 1536.807861,266.460632 
	C1537.923828,268.060028 1539.013184,269.959015 1540.419312,271.584198 
	C1555.013550,288.453644 1569.560547,305.366058 1584.341431,322.071259 
	C1589.774658,328.211884 1596.046509,333.495056 1604.239380,335.746674 
	C1613.369751,338.255951 1621.114136,335.168365 1625.850464,327.636047 
	C1630.039185,320.974426 1628.052246,310.266174 1623.147949,304.990784 
	C1610.340454,291.214569 1598.115723,276.894135 1585.748291,262.712524 
	C1579.444946,255.484650 1573.334473,248.088593 1566.671265,240.218628 
	C1569.237915,237.964447 1571.236694,236.229233 1573.213623,234.469345 
	C1586.521729,222.622482 1599.850830,210.798904 1613.120605,198.909210 
	C1620.937622,191.905182 1622.871948,181.390549 1618.001343,173.141891 
	C1613.527832,165.565506 1603.287109,162.084290 1593.762817,165.805893 
	C1589.238647,167.573730 1584.959595,170.571243 1581.292236,173.826080 
	C1565.227661,188.084717 1549.449219,202.665649 1533.488770,217.042801 
	C1532.237793,218.169785 1529.485840,219.649963 1528.984253,219.207108 
	C1527.538208,217.930496 1526.689209,215.824524 1525.997070,213.903351 
	C1525.568115,212.712906 1525.820435,211.265854 1525.819702,209.933945 
	C1525.799927,178.616516 1525.813965,147.299011 1525.725830,115.981789 
	C1525.718384,113.359978 1525.032104,110.740074 1524.425537,107.357201 
M796.171692,198.793716 
	C796.236755,208.826462 800.066345,214.555496 809.000000,217.984619 
	C816.834229,220.991699 823.998291,219.050674 830.248169,211.722473 
	C836.943420,203.871948 843.392151,195.809067 849.863098,187.770157 
	C854.383545,182.154266 858.760437,176.422775 863.359314,170.540985 
	C868.790833,176.970276 873.799988,182.899628 878.711853,188.713760 
	C871.695068,198.314667 870.869812,203.942947 874.890076,212.809418 
	C879.958984,223.988678 896.130920,226.761658 904.219055,217.430496 
	C912.808411,207.521057 920.835693,197.122116 929.034790,186.878036 
	C931.473022,183.831604 933.663147,180.586639 936.155334,177.174805 
	C945.491089,188.453461 954.516479,199.067245 963.206604,209.948730 
	C970.021240,218.481750 981.453552,220.578842 989.700867,214.351349 
	C999.344666,207.069351 1001.106079,194.766159 994.077271,185.752197 
	C982.100708,170.393021 970.320557,154.880814 958.407043,139.472198 
	C956.015137,136.378479 955.298889,133.365128 956.364319,129.350540 
	C958.581726,120.995674 960.301758,112.493103 961.871521,103.985794 
	C964.190796,91.416824 957.559692,82.294098 945.020630,80.341019 
	C934.198120,78.655312 924.605713,86.715797 922.389832,98.191353 
	C920.099060,110.055084 917.449036,121.931190 913.747559,133.412231 
	C911.259155,141.130997 906.669495,148.172348 902.309326,156.946930 
	C895.338135,148.040344 889.590149,140.563385 883.678284,133.218292 
	C881.710327,130.773132 881.409302,128.571671 882.287231,125.471008 
	C884.460083,117.797470 886.350586,110.014114 887.785889,102.170822 
	C888.995422,95.561218 887.252136,89.540245 881.673096,85.224106 
	C875.106445,80.143913 867.823181,78.719139 860.093811,82.086731 
	C852.449219,85.417358 849.026550,91.646065 847.137695,99.743484 
	C844.322998,111.810219 842.158447,124.660706 836.238159,135.228638 
	C826.366516,152.849808 813.646118,168.864578 802.347839,185.705124 
	C799.822998,189.468567 798.219604,193.850266 796.171692,198.793716 
M513.471497,214.925766 
	C510.767151,219.113113 508.271606,223.454437 505.318970,227.458664 
	C496.831848,238.968369 488.250427,250.411438 479.531097,261.746124 
	C472.870758,270.404205 473.561798,281.834625 481.455536,288.738068 
	C489.659790,295.913055 501.792450,296.186676 508.408325,288.097473 
	C521.339111,272.287079 533.657776,255.966431 545.928589,239.630753 
	C550.774475,233.179642 554.815918,226.124359 559.688843,218.628693 
	C562.470276,221.778854 564.791565,224.105286 566.767822,226.694946 
	C580.086243,244.146606 593.268799,261.702087 606.626953,279.123108 
	C613.251343,287.762360 625.666992,289.296967 633.767944,282.750000 
	C642.806885,275.445038 644.491516,262.993286 638.181580,254.293991 
	C618.934998,227.759689 599.880432,201.085754 580.854553,174.392502 
	C579.798035,172.910233 579.001282,170.677811 579.220703,168.937958 
	C581.591370,150.141754 584.155273,131.369492 586.738831,112.600677 
	C588.541626,99.503677 580.654358,89.211441 567.905212,88.177345 
	C555.794495,87.195030 546.613647,95.955666 546.074219,108.815048 
	C545.233826,128.847488 541.512878,148.412842 536.058777,167.658096 
	C531.300598,184.447617 522.535278,199.364471 513.471497,214.925766 
M966.499756,283.319366 
	C975.991516,283.306885 985.483459,283.324524 994.974976,283.273895 
	C1005.654602,283.216949 1007.973633,285.381042 1008.016785,295.951233 
	C1008.069824,308.939545 1007.843872,321.931091 1008.059326,334.915924 
	C1008.184265,342.443939 1010.885071,348.957947 1017.836243,352.860199 
	C1031.958008,360.787933 1048.008911,351.396118 1048.571045,334.470581 
	C1049.178711,316.175476 1049.429565,297.850708 1049.158936,279.548859 
	C1048.830933,257.366943 1039.366699,247.016113 1017.361877,244.232925 
	C1010.962280,243.423508 1004.410889,243.685196 997.928894,243.678146 
	C958.130432,243.634888 918.332031,243.641159 878.533569,243.663422 
	C866.872498,243.669937 858.208862,252.401627 858.373962,263.859772 
	C858.540894,275.443970 866.820129,283.220581 878.577393,283.205170 
	C907.551392,283.167206 936.525513,283.270416 966.499756,283.319366 
M1049.045288,189.508759 
	C1049.039307,186.342880 1049.273071,183.154083 1048.973267,180.016296 
	C1048.478516,174.841171 1051.179810,173.154663 1055.743042,173.131622 
	C1062.407715,173.097961 1069.072388,173.078003 1075.736938,173.029663 
	C1086.151978,172.954102 1093.828979,165.166183 1093.931396,154.594284 
	C1094.047852,142.574112 1086.932007,134.657120 1075.838623,134.551453 
	C1069.674194,134.492737 1063.508423,134.571182 1057.343506,134.550674 
	C1050.077881,134.526489 1049.097046,133.501953 1049.049561,126.109268 
	C1048.978882,115.115318 1049.275146,104.101654 1048.703003,93.133537 
	C1048.210083,83.684875 1042.659546,77.317223 1034.541626,75.274269 
	C1020.341492,71.700630 1009.002441,79.863014 1008.295593,94.475800 
	C1007.909607,102.456673 1008.072876,110.466194 1008.064392,118.462875 
	C1008.031067,149.954559 1007.993469,181.446335 1008.031677,212.937973 
	C1008.045288,224.191559 1015.533447,232.693954 1026.165039,233.815994 
	C1037.238892,234.984711 1046.717529,228.384415 1048.305176,216.925369 
	C1049.507080,208.251083 1048.869507,199.321899 1049.045288,189.508759 
M1403.806030,97.110703 
	C1387.919556,102.719009 1380.640625,117.662788 1386.131470,133.397293 
	C1390.673462,146.413193 1406.487915,153.857559 1420.080322,149.378204 
	C1433.887451,144.828079 1441.275391,130.867722 1437.607544,116.259239 
	C1434.044678,102.069450 1420.171387,93.928848 1403.806030,97.110703 
z"/>
<path fill="#FFFFFF" opacity="1.000000" stroke="none" 
	d="
M1.000000,182.000000 
	C1.000000,121.735817 1.000000,61.471634 1.000000,1.000000 
	C67.687416,1.000000 134.375046,1.000000 201.390839,1.312562 
	C200.435989,2.392510 199.091934,3.074399 197.879303,3.940318 
	C183.486694,14.217861 173.026657,27.910358 164.548035,43.159286 
	C157.810410,55.276978 152.900131,68.138763 150.862915,82.370819 
	C150.459381,92.163673 150.214066,101.587090 149.942291,111.430420 
	C151.684662,121.959023 153.860321,131.906143 161.154846,140.188080 
	C167.478653,145.748718 173.688553,150.987076 180.091553,156.469116 
	C181.498642,157.520508 182.712585,158.328232 184.087433,159.521027 
	C184.565903,162.823227 185.203537,165.746796 185.144928,168.656342 
	C184.907532,180.438583 184.455963,192.216522 183.935013,204.294769 
	C183.780151,206.391968 183.773682,208.190460 183.629776,210.440842 
	C183.363495,216.620972 183.234650,222.349197 182.949982,228.429367 
	C182.580276,232.395340 182.366379,236.009399 181.780945,239.439880 
	C180.375259,236.297195 179.566742,233.233673 178.256821,230.402130 
	C176.000580,225.525070 173.432220,220.792419 171.067429,215.629242 
	C166.930405,205.972275 161.911728,197.235001 154.080078,190.037628 
	C145.265320,179.987762 134.510361,173.444168 121.880554,169.196228 
	C111.419365,165.137024 101.027649,162.281738 89.575302,162.171921 
	C64.579781,160.775162 40.499012,163.356049 17.019678,170.852448 
	C10.531646,172.923904 4.325947,175.389755 1.000000,182.000000 
z"/>
<path fill="#FFFFFF" opacity="1.000000" stroke="none" 
	d="
M188.000000,391.000000 
	C125.736641,391.000000 63.473282,391.000000 1.000000,391.000000 
	C1.000000,323.645905 1.000000,256.291626 1.285054,188.514633 
	C1.996658,188.472870 2.423208,188.853806 2.893249,189.603302 
	C5.900436,197.691376 8.717832,205.471161 11.867151,213.114166 
	C15.322869,221.500778 19.084562,229.761322 22.804863,238.427567 
	C29.556108,248.274475 36.215420,257.770630 42.981865,267.522369 
	C43.667366,268.215027 44.245731,268.652039 44.991364,269.378967 
	C47.054176,271.460236 48.949726,273.251587 51.003471,275.346130 
	C53.445126,277.320160 55.692532,279.043091 58.018173,280.653015 
	C69.212646,288.402496 81.081276,294.585022 95.132950,296.593628 
	C113.210052,300.294922 130.933563,299.279724 148.630905,296.162750 
	C158.388916,294.444122 168.150467,292.745422 177.999634,291.450684 
	C178.439148,293.949615 179.092514,296.035461 179.093521,298.121643 
	C179.105530,322.855682 179.194626,347.592072 178.860565,372.322449 
	C178.751770,380.375153 180.288193,387.048798 188.000000,391.000000 
z"/>
<path fill="#8FC750" opacity="1.000000" stroke="none" 
	d="
M151.021133,82.001381 
	C152.900131,68.138763 157.810410,55.276978 164.548035,43.159286 
	C173.026657,27.910358 183.486694,14.217861 197.879303,3.940318 
	C199.091934,3.074399 200.435989,2.392510 201.859497,1.312562 
	C203.714355,1.000000 205.428711,1.000000 207.571533,0.999998 
	C216.659058,7.872405 225.970642,14.078522 233.826004,21.771574 
	C245.957809,33.652729 252.981659,48.752823 256.889130,65.566650 
	C252.575943,69.103287 248.428528,69.532448 243.524902,68.224159 
	C238.792801,66.961624 234.566589,71.854645 235.372391,76.757652 
	C235.574402,77.986839 235.949371,79.834290 235.320740,80.442596 
	C232.429596,83.240204 231.128479,88.054436 225.648087,87.808220 
	C223.933807,87.731209 221.556824,89.014137 220.485229,90.431923 
	C216.659256,95.493904 211.462860,95.317032 206.066193,94.552307 
	C206.030014,92.416763 206.018539,90.706970 206.026978,88.577408 
	C206.346359,83.448631 206.645844,78.739632 206.964722,73.560165 
	C206.984329,68.591904 207.211044,64.076248 206.858643,59.606262 
	C206.739502,58.095139 205.154251,56.699596 204.239014,55.251225 
	C202.949448,56.328735 200.893784,57.184586 200.506500,58.523167 
	C199.039658,63.592869 198.113556,68.819023 196.700439,74.258484 
	C195.924576,78.673828 195.433472,82.817329 194.671661,87.225296 
	C193.267517,92.993263 192.134064,98.496788 190.601105,103.992569 
	C187.266357,103.059494 184.141708,102.508186 181.432724,101.136154 
	C174.327759,97.537643 169.899155,91.769661 167.757248,83.958023 
	C166.386902,78.960335 161.127762,77.386063 157.155014,79.843643 
	C155.354477,80.957481 153.080399,81.305794 151.021133,82.001381 
z"/>
<path fill="#7EBA46" opacity="1.000000" stroke="none" 
	d="
M2.849757,189.234726 
	C2.423208,188.853806 1.996658,188.472870 1.285054,188.045975 
	C1.000000,186.285645 1.000000,184.571289 1.000000,182.428467 
	C4.325947,175.389755 10.531646,172.923904 17.019678,170.852448 
	C40.499012,163.356049 64.579781,160.775162 89.655548,162.495453 
	C92.091591,164.853836 92.514954,166.591965 90.622498,168.989914 
	C88.130272,172.147873 89.239273,174.300262 93.304214,174.984711 
	C98.153664,175.801270 100.838539,181.160080 97.790390,185.149246 
	C91.487259,193.398270 87.060249,202.581787 82.569992,212.010437 
	C77.425941,211.338394 72.713234,210.669800 67.748253,209.719254 
	C60.241421,207.420364 52.817173,205.866379 45.770210,203.283142 
	C33.777573,198.886948 22.071360,193.713531 10.121296,189.193192 
	C8.005445,188.392807 5.288908,189.180420 2.849757,189.234726 
z"/>
<path fill="#2B6E2B" opacity="1.000000" stroke="none" 
	d="
M1717.000000,128.545898 
	C1715.695801,132.169556 1714.769409,135.567123 1713.019043,138.467361 
	C1706.951294,148.521133 1692.560913,153.263641 1680.882568,149.351654 
	C1669.665894,145.594406 1662.053589,133.771912 1663.045654,121.649361 
	C1664.094971,108.826553 1672.896484,98.708458 1684.966553,96.449249 
	C1697.147095,94.169365 1709.636597,100.600868 1714.549072,111.841385 
	C1715.467651,113.943230 1715.797119,116.302452 1716.699219,118.771439 
	C1717.000000,122.030594 1717.000000,125.061188 1717.000000,128.545898 
z"/>
<path fill="#40922F" opacity="1.000000" stroke="none" 
	d="
M188.444168,391.000000 
	C180.288193,387.048798 178.751770,380.375153 178.860565,372.322449 
	C179.194626,347.592072 179.105530,322.855682 179.093521,298.121643 
	C179.092514,296.035461 178.439148,293.949615 178.257904,291.303558 
	C178.947021,290.161591 179.467117,289.579651 180.315369,289.141235 
	C183.732376,289.924347 186.887329,290.355652 189.877899,291.304840 
	C191.094986,291.691132 192.621216,293.060638 192.869171,294.225067 
	C194.464722,301.718353 196.162064,303.179230 203.600616,302.355469 
	C203.600616,303.752808 203.600616,305.110596 203.600616,307.071899 
	C199.563721,304.794067 197.842987,306.964905 197.187500,310.118134 
	C196.119186,315.257294 199.534683,317.060608 203.998138,317.763428 
	C203.998138,337.196075 203.966354,356.326569 204.048370,375.456635 
	C204.056381,377.324768 204.765564,379.189850 205.149292,381.056366 
	C204.616928,386.454224 200.508606,388.457336 196.153198,390.685669 
	C193.629440,391.000000 191.258896,391.000000 188.444168,391.000000 
z"/>
<path fill="#296C29" opacity="1.000000" stroke="none" 
	d="
M1347.667236,210.647217 
	C1337.988770,240.078583 1328.457031,269.140381 1318.920166,298.200623 
	C1316.538208,305.459351 1314.225586,312.742371 1311.729126,319.961731 
	C1308.415405,329.544769 1298.973145,336.332703 1288.931763,336.539032 
	C1276.284180,336.798981 1266.801392,331.412323 1262.829590,321.123688 
	C1256.537964,304.825806 1250.625244,288.381989 1244.401123,272.057587 
	C1240.856934,262.762207 1237.012573,253.581345 1232.695557,242.835739 
	C1230.169434,248.410355 1228.152588,252.477051 1226.454712,256.672852 
	C1217.783691,278.102112 1209.176025,299.557129 1200.585693,321.018921 
	C1196.727905,330.657257 1185.281616,337.265381 1173.323242,336.652588 
	C1162.246826,336.084961 1153.388306,329.152985 1150.414673,318.978210 
	C1140.481567,284.990234 1130.466064,251.026352 1120.517700,217.042831 
	C1117.713135,207.462418 1114.891846,197.883118 1112.330078,188.236435 
	C1109.709473,178.367615 1116.408203,167.604248 1126.432983,165.133881 
	C1138.206055,162.232651 1148.652832,168.887650 1151.902466,180.763687 
	C1159.391724,208.133972 1167.129639,235.436432 1174.841187,262.745361 
	C1175.542114,265.227783 1176.781372,267.558228 1178.334595,271.327576 
	C1180.060913,267.950500 1181.319092,265.928284 1182.174683,263.748108 
	C1191.639893,239.631851 1200.856934,215.416397 1210.525391,191.382370 
	C1217.279907,174.591339 1237.210571,170.488846 1250.304443,182.959579 
	C1252.163330,184.730087 1253.731812,187.114395 1254.651611,189.514709 
	C1263.758057,213.281570 1272.690308,237.115143 1281.699341,260.919403 
	C1282.790161,263.801758 1284.042969,266.622803 1285.708252,270.651947 
	C1287.384277,267.784943 1288.817383,266.120239 1289.413208,264.196198 
	C1298.056885,236.285660 1306.755493,208.389923 1315.064819,180.379074 
	C1318.405273,169.118500 1329.831543,162.061768 1341.084839,165.216995 
	C1352.435913,168.399612 1357.957520,179.431717 1354.104370,191.332962 
	C1352.054932,197.663208 1349.912720,203.963379 1347.667236,210.647217 
z"/>
<path fill="#286B28" opacity="1.000000" stroke="none" 
	d="
M764.710083,281.000122 
	C764.710754,291.329498 764.764709,301.159271 764.699463,310.988190 
	C764.613525,323.946594 756.495789,332.307343 744.096985,332.327454 
	C731.641968,332.347656 723.422058,324.144684 723.361938,311.116486 
	C723.226624,281.795532 723.304932,252.473633 723.270325,223.152161 
	C723.262512,216.501862 722.390747,215.646957 715.790833,215.651108 
	C710.794128,215.654236 705.797424,215.747284 700.800720,215.794891 
	C696.680542,215.834152 695.066650,217.678970 695.089661,222.004425 
	C695.234985,249.325760 695.162537,276.648438 695.109863,303.970581 
	C695.091370,313.558746 689.552856,321.137512 680.699951,323.948914 
	C671.973206,326.720245 662.316406,324.009552 657.703247,316.449341 
	C655.486328,312.816071 654.078857,308.070679 654.048645,303.816528 
	C653.728149,258.670441 653.714294,213.521896 653.711853,168.374008 
	C653.710693,147.390869 653.973083,126.407822 654.005859,105.424553 
	C654.018738,97.203812 656.369385,90.176514 663.979858,86.135414 
	C671.624878,82.075966 679.423828,82.319603 686.703491,87.204079 
	C692.733398,91.250046 695.062439,97.416420 695.100525,104.394936 
	C695.212524,124.885902 695.100281,145.378021 695.184021,165.869247 
	C695.218201,174.241516 696.888489,175.785477 705.158325,175.781906 
	C708.823242,175.780319 712.488098,175.710663 716.153015,175.676422 
	C721.945374,175.622330 723.263916,174.488388 723.311829,168.715378 
	C723.403137,157.720734 723.302307,146.724594 723.299072,135.729065 
	C723.295471,123.733932 723.259827,111.738464 723.337952,99.743790 
	C723.391724,91.488342 726.442871,84.505806 733.996460,80.750114 
	C741.277771,77.129776 748.975464,77.487144 755.915527,82.032585 
	C762.674316,86.459259 764.727234,93.349510 764.724670,101.073517 
	C764.708740,148.720947 764.705872,196.368362 764.701050,244.015793 
	C764.699768,256.177216 764.707031,268.338654 764.710083,281.000122 
z"/>
<path fill="#296C29" opacity="1.000000" stroke="none" 
	d="
M1524.543335,107.738243 
	C1525.032104,110.740074 1525.718384,113.359978 1525.725830,115.981789 
	C1525.813965,147.299011 1525.799927,178.616516 1525.819702,209.933945 
	C1525.820435,211.265854 1525.568115,212.712906 1525.997070,213.903351 
	C1526.689209,215.824524 1527.538208,217.930496 1528.984253,219.207108 
	C1529.485840,219.649963 1532.237793,218.169785 1533.488770,217.042801 
	C1549.449219,202.665649 1565.227661,188.084717 1581.292236,173.826080 
	C1584.959595,170.571243 1589.238647,167.573730 1593.762817,165.805893 
	C1603.287109,162.084290 1613.527832,165.565506 1618.001343,173.141891 
	C1622.871948,181.390549 1620.937622,191.905182 1613.120605,198.909210 
	C1599.850830,210.798904 1586.521729,222.622482 1573.213623,234.469345 
	C1571.236694,236.229233 1569.237915,237.964447 1566.671265,240.218628 
	C1573.334473,248.088593 1579.444946,255.484650 1585.748291,262.712524 
	C1598.115723,276.894135 1610.340454,291.214569 1623.147949,304.990784 
	C1628.052246,310.266174 1630.039185,320.974426 1625.850464,327.636047 
	C1621.114136,335.168365 1613.369751,338.255951 1604.239380,335.746674 
	C1596.046509,333.495056 1589.774658,328.211884 1584.341431,322.071259 
	C1569.560547,305.366058 1555.013550,288.453644 1540.419312,271.584198 
	C1539.013184,269.959015 1537.923828,268.060028 1536.807861,266.460632 
	C1529.514893,271.076080 1525.154297,275.366882 1525.661255,283.571136 
	C1526.317749,294.191803 1525.827393,304.884644 1525.794556,315.546265 
	C1525.755249,328.318451 1517.699707,336.381470 1504.850098,336.558472 
	C1492.998291,336.721771 1484.625732,328.548340 1484.535034,316.022766 
	C1484.335327,288.367126 1484.397949,260.709351 1484.408813,233.052460 
	C1484.424072,194.401535 1484.480713,155.750610 1484.538452,117.099716 
	C1484.563843,100.050240 1498.789429,90.144531 1514.173096,97.131348 
	C1518.289551,99.000984 1521.045166,103.866859 1524.543335,107.738243 
z"/>
<path fill="#286A28" opacity="1.000000" stroke="none" 
	d="
M796.181885,198.370529 
	C798.219604,193.850266 799.822998,189.468567 802.347839,185.705124 
	C813.646118,168.864578 826.366516,152.849808 836.238159,135.228638 
	C842.158447,124.660706 844.322998,111.810219 847.137695,99.743484 
	C849.026550,91.646065 852.449219,85.417358 860.093811,82.086731 
	C867.823181,78.719139 875.106445,80.143913 881.673096,85.224106 
	C887.252136,89.540245 888.995422,95.561218 887.785889,102.170822 
	C886.350586,110.014114 884.460083,117.797470 882.287231,125.471008 
	C881.409302,128.571671 881.710327,130.773132 883.678284,133.218292 
	C889.590149,140.563385 895.338135,148.040344 902.309326,156.946930 
	C906.669495,148.172348 911.259155,141.130997 913.747559,133.412231 
	C917.449036,121.931190 920.099060,110.055084 922.389832,98.191353 
	C924.605713,86.715797 934.198120,78.655312 945.020630,80.341019 
	C957.559692,82.294098 964.190796,91.416824 961.871521,103.985794 
	C960.301758,112.493103 958.581726,120.995674 956.364319,129.350540 
	C955.298889,133.365128 956.015137,136.378479 958.407043,139.472198 
	C970.320557,154.880814 982.100708,170.393021 994.077271,185.752197 
	C1001.106079,194.766159 999.344666,207.069351 989.700867,214.351349 
	C981.453552,220.578842 970.021240,218.481750 963.206604,209.948730 
	C954.516479,199.067245 945.491089,188.453461 936.155334,177.174805 
	C933.663147,180.586639 931.473022,183.831604 929.034790,186.878036 
	C920.835693,197.122116 912.808411,207.521057 904.219055,217.430496 
	C896.130920,226.761658 879.958984,223.988678 874.890076,212.809418 
	C870.869812,203.942947 871.695068,198.314667 878.711853,188.713760 
	C873.799988,182.899628 868.790833,176.970276 863.359314,170.540985 
	C858.760437,176.422775 854.383545,182.154266 849.863098,187.770157 
	C843.392151,195.809067 836.943420,203.871948 830.248169,211.722473 
	C823.998291,219.050674 816.834229,220.991699 809.000000,217.984619 
	C800.066345,214.555496 796.236755,208.826462 796.181885,198.370529 
z"/>
<path fill="#286A28" opacity="1.000000" stroke="none" 
	d="
M513.664246,214.616180 
	C522.535278,199.364471 531.300598,184.447617 536.058777,167.658096 
	C541.512878,148.412842 545.233826,128.847488 546.074219,108.815048 
	C546.613647,95.955666 555.794495,87.195030 567.905212,88.177345 
	C580.654358,89.211441 588.541626,99.503677 586.738831,112.600677 
	C584.155273,131.369492 581.591370,150.141754 579.220703,168.937958 
	C579.001282,170.677811 579.798035,172.910233 580.854553,174.392502 
	C599.880432,201.085754 618.934998,227.759689 638.181580,254.293991 
	C644.491516,262.993286 642.806885,275.445038 633.767944,282.750000 
	C625.666992,289.296967 613.251343,287.762360 606.626953,279.123108 
	C593.268799,261.702087 580.086243,244.146606 566.767822,226.694946 
	C564.791565,224.105286 562.470276,221.778854 559.688843,218.628693 
	C554.815918,226.124359 550.774475,233.179642 545.928589,239.630753 
	C533.657776,255.966431 521.339111,272.287079 508.408325,288.097473 
	C501.792450,296.186676 489.659790,295.913055 481.455536,288.738068 
	C473.561798,281.834625 472.870758,270.404205 479.531097,261.746124 
	C488.250427,250.411438 496.831848,238.968369 505.318970,227.458664 
	C508.271606,223.454437 510.767151,219.113113 513.664246,214.616180 
z"/>
<path fill="#276A28" opacity="1.000000" stroke="none" 
	d="
M965.999695,283.318115 
	C936.525513,283.270416 907.551392,283.167206 878.577393,283.205170 
	C866.820129,283.220581 858.540894,275.443970 858.373962,263.859772 
	C858.208862,252.401627 866.872498,243.669937 878.533569,243.663422 
	C918.332031,243.641159 958.130432,243.634888 997.928894,243.678146 
	C1004.410889,243.685196 1010.962280,243.423508 1017.361877,244.232925 
	C1039.366699,247.016113 1048.830933,257.366943 1049.158936,279.548859 
	C1049.429565,297.850708 1049.178711,316.175476 1048.571045,334.470581 
	C1048.008911,351.396118 1031.958008,360.787933 1017.836243,352.860199 
	C1010.885071,348.957947 1008.184265,342.443939 1008.059326,334.915924 
	C1007.843872,321.931091 1008.069824,308.939545 1008.016785,295.951233 
	C1007.973633,285.381042 1005.654602,283.216949 994.974976,283.273895 
	C985.483459,283.324524 975.991516,283.306885 965.999695,283.318115 
z"/>
<path fill="#286B28" opacity="1.000000" stroke="none" 
	d="
M1049.047852,190.007462 
	C1048.869507,199.321899 1049.507080,208.251083 1048.305176,216.925369 
	C1046.717529,228.384415 1037.238892,234.984711 1026.165039,233.815994 
	C1015.533447,232.693954 1008.045288,224.191559 1008.031677,212.937973 
	C1007.993469,181.446335 1008.031067,149.954559 1008.064392,118.462875 
	C1008.072876,110.466194 1007.909607,102.456673 1008.295593,94.475800 
	C1009.002441,79.863014 1020.341492,71.700630 1034.541626,75.274269 
	C1042.659546,77.317223 1048.210083,83.684875 1048.703003,93.133537 
	C1049.275146,104.101654 1048.978882,115.115318 1049.049561,126.109268 
	C1049.097046,133.501953 1050.077881,134.526489 1057.343506,134.550674 
	C1063.508423,134.571182 1069.674194,134.492737 1075.838623,134.551453 
	C1086.932007,134.657120 1094.047852,142.574112 1093.931396,154.594284 
	C1093.828979,165.166183 1086.151978,172.954102 1075.736938,173.029663 
	C1069.072388,173.078003 1062.407715,173.097961 1055.743042,173.131622 
	C1051.179810,173.154663 1048.478516,174.841171 1048.973267,180.016296 
	C1049.273071,183.154083 1049.039307,186.342880 1049.047852,190.007462 
z"/>
<path fill="#286C29" opacity="1.000000" stroke="none" 
	d="
M1391.697754,181.876221 
	C1393.454834,170.511246 1401.855835,163.764816 1413.359985,164.480240 
	C1424.545776,165.175873 1432.108765,173.494614 1432.159912,185.614624 
	C1432.278076,213.560806 1432.246338,241.507645 1432.253296,269.454224 
	C1432.257080,284.769867 1432.221680,300.085541 1432.192505,315.401184 
	C1432.170288,327.119476 1425.580444,335.176361 1415.077026,336.354187 
	C1402.762329,337.735138 1394.402344,331.879150 1392.004395,319.280060 
	C1392.577026,317.334717 1392.972412,316.049072 1392.973389,314.763092 
	C1393.005615,271.974915 1393.013306,229.186707 1392.945190,186.398621 
	C1392.942749,184.890503 1392.131836,183.383667 1391.697754,181.876221 
z"/>
<path fill="#286C28" opacity="1.000000" stroke="none" 
	d="
M1711.280762,238.010513 
	C1711.368408,243.715927 1711.456177,249.421341 1711.076416,255.731781 
	C1710.229492,257.727417 1709.850098,259.118042 1709.167847,261.618927 
	C1706.333984,261.230957 1703.454712,260.581146 1700.565186,260.532562 
	C1698.691772,260.501038 1696.621582,261.039551 1695.028809,261.981323 
	C1694.527344,262.277771 1695.079956,264.777802 1695.517334,266.152557 
	C1696.410034,268.958771 1695.880615,270.554504 1692.675659,271.072815 
	C1691.291748,271.296661 1690.051392,272.408325 1688.549194,273.223297 
	C1692.250122,275.948517 1695.030518,277.995880 1697.011230,279.454468 
	C1699.307251,278.079254 1701.995361,275.917267 1702.428223,276.300751 
	C1704.990601,278.571106 1709.186157,279.471436 1709.073608,284.285187 
	C1708.840942,294.242126 1708.942017,304.209076 1709.065674,314.169983 
	C1709.086304,315.832123 1709.913452,317.484253 1710.367920,319.140991 
	C1710.368042,319.140991 1710.469849,319.612671 1709.983032,319.939423 
	C1703.887329,323.466034 1698.286133,326.679871 1692.649170,329.829590 
	C1692.322754,330.011993 1691.676392,329.745209 1691.227295,329.565979 
	C1685.673096,327.349396 1681.087158,322.282562 1673.919922,324.823639 
	C1673.941040,324.378052 1673.962158,323.932465 1673.983398,323.486877 
	C1675.698120,322.173096 1677.412720,320.859344 1679.127441,319.545593 
	C1678.958130,319.100494 1678.788696,318.655365 1678.619385,318.210266 
	C1676.231445,318.327698 1673.843384,318.445129 1671.455322,318.562561 
	C1675.638428,315.044495 1673.420288,311.815247 1671.826538,308.424133 
	C1671.156494,306.998474 1671.029541,305.214447 1671.027710,303.592926 
	C1670.985474,266.955200 1670.985229,230.317413 1671.027588,193.679703 
	C1671.029541,192.068726 1671.053223,190.169083 1671.855469,188.904175 
	C1673.915161,185.656540 1672.879395,183.638687 1669.925537,181.974396 
	C1671.535522,172.048798 1677.948364,165.679779 1687.453125,164.566620 
	C1697.450928,163.395721 1705.459473,168.032349 1708.962158,177.675903 
	C1709.150757,179.129333 1709.579346,180.065414 1710.008057,181.001511 
	C1710.008057,181.001511 1710.316040,181.391586 1709.951660,181.908798 
	C1708.725586,190.362686 1707.584229,198.282059 1707.091431,206.241592 
	C1706.701172,212.542633 1706.613159,218.949326 1707.327393,225.202118 
	C1707.825806,229.565186 1709.906738,233.747467 1711.280762,238.010513 
z"/>
<path fill="#85BE4A" opacity="1.000000" stroke="none" 
	d="
M290.001373,165.048859 
	C316.974457,163.547455 343.504639,166.008179 369.494476,173.683014 
	C373.576202,174.888336 376.370758,176.871857 376.650940,181.684601 
	C374.271729,185.847412 371.303406,187.866714 366.895386,188.074036 
	C363.799744,188.219650 360.698486,188.927490 357.672821,189.678696 
	C354.855164,190.378250 349.699127,190.483368 355.579254,194.885193 
	C355.967926,195.176147 355.894501,196.118729 355.987305,196.765198 
	C356.867493,202.895798 356.840942,202.801163 362.537506,201.391327 
	C363.800323,201.078781 366.160217,201.261032 366.517731,201.970261 
	C367.571259,204.060043 368.422882,206.574203 368.235748,208.829529 
	C368.143463,209.941864 365.535645,211.754837 364.159393,211.673431 
	C360.634277,211.464905 357.161438,210.372849 352.197906,209.323303 
	C350.969696,212.043900 348.903259,215.211334 348.128387,218.668274 
	C346.966461,223.851898 344.780884,229.889328 340.169373,230.238373 
	C335.375885,230.601181 335.273743,233.177460 333.562286,235.634186 
	C332.788605,236.744720 331.036835,237.173859 329.728790,237.912140 
	C329.219360,236.554535 327.972443,234.949158 328.330597,233.883072 
	C329.737457,229.695740 328.940613,225.997009 326.719849,222.461716 
	C324.255096,218.537857 321.666992,214.691513 318.820221,210.333191 
	C319.132599,209.229904 319.728088,207.126617 320.323608,205.023315 
	C317.882111,205.350693 315.440613,205.678085 312.615295,206.048676 
	C305.822021,208.388870 299.412537,210.685867 292.603027,212.990204 
	C291.136200,213.015732 290.069336,213.033890 289.001770,212.613037 
	C289.354065,209.616989 288.914185,206.527283 290.207581,204.602081 
	C294.208252,198.647232 292.546234,191.193069 295.967865,185.196228 
	C296.177765,184.828369 295.908417,184.214294 295.961487,183.725555 
	C296.657776,177.310394 296.810547,171.096008 290.524231,166.906845 
	C290.117737,166.635956 290.165100,165.683990 290.001373,165.048859 
z"/>
<path fill="#82BC48" opacity="1.000000" stroke="none" 
	d="
M312.999115,206.005493 
	C315.440613,205.678085 317.882111,205.350693 320.323608,205.023315 
	C319.728088,207.126617 319.132599,209.229904 318.820221,210.333191 
	C321.666992,214.691513 324.255096,218.537857 326.719849,222.461716 
	C328.940613,225.997009 329.737457,229.695740 328.330597,233.883072 
	C327.972443,234.949158 329.219360,236.554535 329.728790,237.912140 
	C331.036835,237.173859 332.788605,236.744720 333.562286,235.634186 
	C335.273743,233.177460 335.375885,230.601181 340.169373,230.238373 
	C344.780884,229.889328 346.966461,223.851898 348.128387,218.668274 
	C348.903259,215.211334 350.969696,212.043900 352.197906,209.323303 
	C357.161438,210.372849 360.634277,211.464905 364.159393,211.673431 
	C365.535645,211.754837 368.143463,209.941864 368.235748,208.829529 
	C368.422882,206.574203 367.571259,204.060043 366.517731,201.970261 
	C366.160217,201.261032 363.800323,201.078781 362.537506,201.391327 
	C356.840942,202.801163 356.867493,202.895798 355.987305,196.765198 
	C355.894501,196.118729 355.967926,195.176147 355.579254,194.885193 
	C349.699127,190.483368 354.855164,190.378250 357.672821,189.678696 
	C360.698486,188.927490 363.799744,188.219650 366.895386,188.074036 
	C371.303406,187.866714 374.271729,185.847412 376.649292,182.056854 
	C378.005310,191.365295 375.452393,200.195816 372.135986,208.670898 
	C368.235779,218.637863 363.646790,228.353836 358.991974,238.002777 
	C351.079132,254.405136 339.995087,268.304474 324.562500,279.126984 
	C320.578857,276.487732 317.324615,273.918671 314.070404,271.349579 
	C314.345673,270.954987 314.620972,270.560364 314.896271,270.165771 
	C311.615265,269.767029 308.291809,269.563721 305.076080,268.864624 
	C303.933777,268.616272 302.857208,267.301819 302.095642,266.229065 
	C300.634644,264.170990 299.778381,261.579346 298.039124,259.841766 
	C291.830688,253.639175 286.447601,245.542450 276.519745,249.010162 
	C275.131683,245.067947 274.046143,241.984940 273.123749,238.616669 
	C275.509918,236.860458 277.732910,235.389511 280.142944,234.263184 
	C288.165649,237.431564 296.125610,239.061981 304.748413,237.466293 
	C302.783295,229.766693 306.063538,223.679474 310.025909,217.936676 
	C308.288177,217.101807 307.144257,216.552216 306.274597,215.810440 
	C308.111053,214.476471 309.709259,213.380203 311.226715,212.181778 
	C313.269165,210.568726 314.934296,208.787109 312.999115,206.005493 
M313.340698,231.353210 
	C314.387848,231.691010 315.435028,232.028809 316.482208,232.366608 
	C316.484222,231.459213 316.486237,230.551819 316.488251,229.644424 
	C315.439850,229.975632 314.391418,230.306824 313.340698,231.353210 
z"/>
<path fill="#7DB745" opacity="1.000000" stroke="none" 
	d="
M272.960602,238.901947 
	C274.046143,241.984940 275.131683,245.067947 276.519745,249.010162 
	C286.447601,245.542450 291.830688,253.639175 298.039124,259.841766 
	C299.778381,261.579346 300.634644,264.170990 302.095642,266.229065 
	C302.857208,267.301819 303.933777,268.616272 305.076080,268.864624 
	C308.291809,269.563721 311.615265,269.767029 314.896271,270.165771 
	C314.620972,270.560364 314.345673,270.954987 314.070404,271.349579 
	C317.324615,273.918671 320.578857,276.487732 324.233765,279.129578 
	C314.485077,286.801544 303.299377,292.231781 290.349854,294.984985 
	C285.952515,293.057373 282.499939,292.663605 278.445923,294.783508 
	C275.679443,296.230133 271.930267,295.797485 268.620453,296.205078 
	C268.346039,295.620544 268.071594,295.036011 267.797180,294.451477 
	C271.663605,290.797638 275.530029,287.143829 279.324829,283.557648 
	C267.850250,282.034515 256.424500,280.517853 244.661377,278.855164 
	C239.708069,277.056030 234.978790,275.650238 230.538315,273.614502 
	C229.002731,272.910522 228.184937,270.640839 227.362946,269.013184 
	C229.159805,267.643799 230.633011,266.347504 232.440933,264.997864 
	C246.170624,256.263672 259.565613,247.582809 272.960602,238.901947 
z"/>
<path fill="#2B6E2B" opacity="1.000000" stroke="none" 
	d="
M1404.202148,97.000290 
	C1420.171387,93.928848 1434.044678,102.069450 1437.607544,116.259239 
	C1441.275391,130.867722 1433.887451,144.828079 1420.080322,149.378204 
	C1406.487915,153.857559 1390.673462,146.413193 1386.131470,133.397293 
	C1380.640625,117.662788 1387.919556,102.719009 1404.202148,97.000290 
z"/>
<path fill="#3E8A2D" opacity="1.000000" stroke="none" 
	d="
M232.106232,265.051239 
	C230.633011,266.347504 229.159805,267.643799 227.047470,269.117279 
	C222.642197,272.683075 218.664398,275.869812 215.177917,279.525116 
	C212.465027,282.369385 210.364151,285.797394 207.991272,288.965942 
	C207.326752,291.632507 206.102737,294.295227 206.084366,296.966248 
	C205.903519,323.267395 205.928040,349.569946 205.872421,375.872070 
	C205.869263,377.361450 205.675018,378.850464 205.359497,380.697998 
	C204.765564,379.189850 204.056381,377.324768 204.048370,375.456635 
	C203.966354,356.326569 203.998138,337.196075 203.998138,317.763428 
	C199.534683,317.060608 196.119186,315.257294 197.187500,310.118134 
	C197.842987,306.964905 199.563721,304.794067 203.600616,307.071899 
	C203.600616,305.110596 203.600616,303.752808 203.600616,302.355469 
	C196.162064,303.179230 194.464722,301.718353 192.869171,294.225067 
	C192.621216,293.060638 191.094986,291.691132 189.877899,291.304840 
	C186.887329,290.355652 183.732376,289.924347 180.462708,288.814697 
	C182.311996,285.491302 182.553665,282.699219 180.037491,279.646942 
	C186.924881,275.615692 186.304810,270.026154 184.019196,263.994171 
	C183.908768,263.702759 184.002533,263.333984 184.291138,262.708649 
	C184.148102,257.742340 183.752365,253.064758 183.268631,248.396301 
	C182.964890,245.464951 182.529053,242.547256 182.152466,239.623444 
	C182.366379,236.009399 182.580276,232.395340 183.394897,228.290405 
	C184.578705,225.997726 185.161804,224.195908 185.421417,223.393677 
	C191.737457,221.811340 197.392990,220.394470 203.048523,218.977600 
	C203.638397,227.070633 204.228271,235.163651 204.704285,244.041534 
	C204.590439,251.630554 204.590439,258.434723 204.590439,266.254333 
	C208.861176,263.657166 211.902969,261.807373 215.308884,260.007812 
	C219.229294,263.481079 223.464462,264.593628 228.323166,264.076782 
	C229.535904,263.947754 230.842682,264.702637 232.106232,265.051239 
z"/>
<path fill="#7DB646" opacity="1.000000" stroke="none" 
	d="
M289.563995,164.996353 
	C290.165100,165.683990 290.117737,166.635956 290.524231,166.906845 
	C296.810547,171.096008 296.657776,177.310394 295.961487,183.725555 
	C295.908417,184.214294 296.177765,184.828369 295.967865,185.196228 
	C292.546234,191.193069 294.208252,198.647232 290.207581,204.602081 
	C288.914185,206.527283 289.354065,209.616989 288.768066,212.879089 
	C284.680145,215.343445 280.825256,217.102692 276.596252,218.905273 
	C272.650238,220.630722 268.900879,222.019592 265.541077,224.052292 
	C256.941345,229.255188 248.514923,234.744568 240.013397,239.658173 
	C240.659180,234.846909 241.631638,230.515549 241.886673,226.142380 
	C242.263153,219.687210 244.676590,214.460083 249.347351,209.998108 
	C250.941315,208.475403 252.560608,206.126175 252.676575,204.070450 
	C253.014618,198.077927 257.238861,195.236221 261.100800,191.894684 
	C262.427399,190.746872 264.474091,189.075653 264.346069,187.833862 
	C263.748505,182.038513 268.636963,176.482452 265.013428,170.656265 
	C273.051147,168.752121 281.088898,166.847992 289.563995,164.996353 
z"/>
<path fill="#86C04B" opacity="1.000000" stroke="none" 
	d="
M206.090897,94.978073 
	C211.462860,95.317032 216.659256,95.493904 220.485229,90.431923 
	C221.556824,89.014137 223.933807,87.731209 225.648087,87.808220 
	C231.128479,88.054436 232.429596,83.240204 235.320740,80.442596 
	C235.949371,79.834290 235.574402,77.986839 235.372391,76.757652 
	C234.566589,71.854645 238.792801,66.961624 243.524902,68.224159 
	C248.428528,69.532448 252.575943,69.103287 256.902496,65.965515 
	C259.387787,77.290840 262.468933,88.593834 259.339172,100.687622 
	C255.871460,107.664948 250.943085,106.037102 245.816849,104.530334 
	C244.036285,104.006966 241.402206,103.735779 240.108841,104.668282 
	C234.698639,108.568993 229.132599,112.490646 224.630569,117.339508 
	C220.979645,121.271698 217.169876,123.670547 211.979034,123.972275 
	C209.333908,124.126022 206.672211,123.994453 204.011230,123.618973 
	C204.009781,122.500084 204.015106,121.754074 204.305954,120.722740 
	C205.091278,111.950966 205.591095,103.464523 206.090897,94.978073 
z"/>
<path fill="#6DA740" opacity="1.000000" stroke="none" 
	d="
M214.944733,259.957550 
	C211.902969,261.807373 208.861176,263.657166 204.590439,266.254333 
	C204.590439,258.434723 204.590439,251.630554 204.765686,244.456665 
	C206.036087,241.191833 207.342239,238.357254 208.193008,235.392014 
	C215.082657,211.379318 227.440689,191.318649 249.640778,178.361191 
	C250.511337,180.199799 251.132980,181.697266 251.527817,183.252319 
	C251.864075,184.576645 252.397583,186.096466 252.056213,187.307816 
	C249.672379,195.766434 244.913452,202.947693 240.519547,210.502914 
	C234.424744,220.982788 230.694351,232.858505 226.247879,244.252213 
	C225.631393,245.831924 226.707504,248.072189 226.806152,250.276657 
	C222.723099,253.683624 218.833908,256.820587 214.944733,259.957550 
z"/>
<path fill="#7AB643" opacity="1.000000" stroke="none" 
	d="
M204.018005,123.991844 
	C206.672211,123.994453 209.333908,124.126022 211.979034,123.972275 
	C217.169876,123.670547 220.979645,121.271698 224.630569,117.339508 
	C229.132599,112.490646 234.698639,108.568993 240.108841,104.668282 
	C241.402206,103.735779 244.036285,104.006966 245.816849,104.530334 
	C250.943085,106.037102 255.871460,107.664948 259.133728,101.001793 
	C257.083130,111.020058 255.537659,121.427437 248.231781,129.770340 
	C245.840454,128.643921 242.737946,127.983597 242.315735,126.539597 
	C240.760117,121.219055 237.635010,122.711243 234.640076,124.276352 
	C230.247040,126.572105 226.236298,129.656311 221.735306,131.674469 
	C215.902985,134.289566 211.614899,140.782471 203.982147,138.535583 
	C203.995239,133.376709 204.006622,128.684280 204.018005,123.991844 
z"/>
<path fill="#6FA93C" opacity="1.000000" stroke="none" 
	d="
M203.980408,139.002014 
	C211.614899,140.782471 215.902985,134.289566 221.735306,131.674469 
	C226.236298,129.656311 230.247040,126.572105 234.640076,124.276352 
	C237.635010,122.711243 240.760117,121.219055 242.315735,126.539597 
	C242.737946,127.983597 245.840454,128.643921 247.956497,129.980499 
	C242.227127,140.625412 233.222290,147.545670 222.687103,152.600494 
	C218.204605,154.751205 213.454987,156.345169 208.425018,157.757599 
	C209.247528,152.822327 205.082062,153.393692 203.015411,151.751572 
	C203.021240,151.507751 203.028412,151.019897 203.440353,151.013977 
	C205.769196,150.283463 207.686111,149.558853 209.603027,148.834259 
	C207.741043,148.220795 205.883057,147.594681 204.013062,147.006668 
	C203.710999,146.911682 203.355652,146.986099 203.021637,146.553955 
	C203.339050,143.751129 203.659729,141.376572 203.980408,139.002014 
z"/>
<path fill="#75AE42" opacity="1.000000" stroke="none" 
	d="
M227.000031,250.006653 
	C226.707504,248.072189 225.631393,245.831924 226.247879,244.252213 
	C230.694351,232.858505 234.424744,220.982788 240.519547,210.502914 
	C244.913452,202.947693 249.672379,195.766434 252.056213,187.307816 
	C252.397583,186.096466 251.864075,184.576645 251.527817,183.252319 
	C251.132980,181.697266 250.511337,180.199799 249.979736,178.281616 
	C254.729706,175.504364 259.488007,173.122864 264.629883,170.698822 
	C268.636963,176.482452 263.748505,182.038513 264.346069,187.833862 
	C264.474091,189.075653 262.427399,190.746872 261.100800,191.894684 
	C257.238861,195.236221 253.014618,198.077927 252.676575,204.070450 
	C252.560608,206.126175 250.941315,208.475403 249.347351,209.998108 
	C244.676590,214.460083 242.263153,219.687210 241.886673,226.142380 
	C241.631638,230.515549 240.659180,234.846909 239.861481,239.948639 
	C235.476944,243.802444 231.238480,246.904556 227.000031,250.006653 
z"/>
<path fill="#3B862A" opacity="1.000000" stroke="none" 
	d="
M184.083405,203.996048 
	C184.455963,192.216522 184.907532,180.438583 185.144928,168.656342 
	C185.203537,165.746796 184.565903,162.823227 184.270508,159.178040 
	C186.531464,157.961655 188.770248,157.473312 191.407104,156.990204 
	C192.867020,156.991577 193.928864,156.987717 195.392715,156.988846 
	C198.786316,158.099411 201.777908,159.205017 204.769501,160.310608 
	C204.058685,163.172485 202.860474,166.012527 202.731186,168.900421 
	C202.385620,176.619888 202.498917,184.359894 201.884003,192.548706 
	C196.216690,194.438919 191.095245,195.872162 185.973816,197.305405 
	C186.260727,197.676956 186.547638,198.048508 186.834564,198.420074 
	C185.917511,200.278732 185.000458,202.137390 184.083405,203.996048 
z"/>
<path fill="#2B6E2B" opacity="1.000000" stroke="none" 
	d="
M1669.760010,182.347534 
	C1672.879395,183.638687 1673.915161,185.656540 1671.855469,188.904175 
	C1671.053223,190.169083 1671.029541,192.068726 1671.027588,193.679703 
	C1670.985229,230.317413 1670.985474,266.955200 1671.027710,303.592926 
	C1671.029541,305.214447 1671.156494,306.998474 1671.826538,308.424133 
	C1673.420288,311.815247 1675.638428,315.044495 1671.455322,318.562561 
	C1673.843384,318.445129 1676.231445,318.327698 1678.619385,318.210266 
	C1678.788696,318.655365 1678.958130,319.100494 1679.127441,319.545593 
	C1677.412720,320.859344 1675.698120,322.173096 1673.983398,323.486877 
	C1673.962158,323.932465 1673.941040,324.378052 1673.919922,324.823639 
	C1681.087158,322.282562 1685.673096,327.349396 1691.227295,329.565979 
	C1691.676392,329.745209 1692.322754,330.011993 1692.649170,329.829590 
	C1698.286133,326.679871 1703.887329,323.466034 1709.823242,320.120239 
	C1709.370483,327.274780 1705.312988,332.059235 1698.342773,334.532104 
	C1697.049316,333.114777 1696.117065,332.050507 1695.184937,330.986206 
	C1694.785278,331.283020 1694.385620,331.579834 1693.985840,331.876617 
	C1694.418213,333.155121 1694.850586,334.433594 1695.282837,335.712067 
	C1681.266602,338.758209 1669.519653,330.282166 1669.485596,316.496521 
	C1669.375488,271.904907 1669.537354,227.312668 1669.760010,182.347534 
M1679.797729,330.391205 
	C1679.793457,330.785919 1679.789307,331.180634 1679.785034,331.575348 
	C1679.948853,331.576874 1680.254761,331.589386 1680.255615,331.578308 
	C1680.285889,331.185547 1680.287842,330.790558 1679.797729,330.391205 
z"/>
<path fill="#6DA740" opacity="1.000000" stroke="none" 
	d="
M208.410828,288.957214 
	C210.364151,285.797394 212.465027,282.369385 215.177917,279.525116 
	C218.664398,275.869812 222.642197,272.683075 226.723816,269.190399 
	C228.184937,270.640839 229.002731,272.910522 230.538315,273.614502 
	C234.978790,275.650238 239.708069,277.056030 244.698120,279.211487 
	C247.524506,283.858063 246.627716,286.813263 242.484787,289.498596 
	C240.749023,290.623657 240.077011,293.389893 238.921356,295.409973 
	C230.853790,293.548401 222.792664,291.658142 214.713959,289.846161 
	C212.782806,289.413025 210.793121,289.240723 208.410828,288.957214 
z"/>
<path fill="#79B242" opacity="1.000000" stroke="none" 
	d="
M239.250198,295.589691 
	C240.077011,293.389893 240.749023,290.623657 242.484787,289.498596 
	C246.627716,286.813263 247.524506,283.858063 245.035522,279.357544 
	C256.424500,280.517853 267.850250,282.034515 279.324829,283.557648 
	C275.530029,287.143829 271.663605,290.797638 267.797180,294.451477 
	C268.071594,295.036011 268.346039,295.620544 268.620453,296.205078 
	C271.930267,295.797485 275.679443,296.230133 278.445923,294.783508 
	C282.499939,292.663605 285.952515,293.057373 289.949280,295.017334 
	C277.407257,299.144501 264.349701,297.873016 251.363022,297.416199 
	C247.420578,297.277557 243.506241,296.340698 239.250198,295.589691 
M242.410538,294.481476 
	C242.410538,294.481476 242.521957,294.415253 242.410538,294.481476 
z"/>
<path fill="#2B6E2B" opacity="1.000000" stroke="none" 
	d="
M1710.541748,318.760620 
	C1709.913452,317.484253 1709.086304,315.832123 1709.065674,314.169983 
	C1708.942017,304.209076 1708.840942,294.242126 1709.073608,284.285187 
	C1709.186157,279.471436 1704.990601,278.571106 1702.428223,276.300751 
	C1701.995361,275.917267 1699.307251,278.079254 1697.011230,279.454468 
	C1695.030518,277.995880 1692.250122,275.948517 1688.549194,273.223297 
	C1690.051392,272.408325 1691.291748,271.296661 1692.675659,271.072815 
	C1695.880615,270.554504 1696.410034,268.958771 1695.517334,266.152557 
	C1695.079956,264.777802 1694.527344,262.277771 1695.028809,261.981323 
	C1696.621582,261.039551 1698.691772,260.501038 1700.565186,260.532562 
	C1703.454712,260.581146 1706.333984,261.230957 1709.167847,261.618927 
	C1709.850098,259.118042 1710.229492,257.727417 1710.897461,256.165741 
	C1711.029175,276.789856 1710.872437,297.585052 1710.541748,318.760620 
M1701.532837,265.111877 
	C1701.129639,267.180725 1700.526978,269.243744 1700.466064,271.322571 
	C1700.451294,271.829956 1702.572510,273.066620 1703.088135,272.793060 
	C1704.438232,272.076630 1706.072754,270.896057 1706.463013,269.568115 
	C1707.424194,266.298248 1705.209595,265.201538 1701.532837,265.111877 
z"/>
<path fill="#3B862A" opacity="1.000000" stroke="none" 
	d="
M203.125763,218.516510 
	C197.392990,220.394470 191.737457,221.811340 185.421417,223.393677 
	C185.161804,224.195908 184.578705,225.997726 183.550705,227.938477 
	C183.234650,222.349197 183.363495,216.620972 184.054062,210.443024 
	C186.823898,209.445999 189.256989,209.313828 191.193085,208.264572 
	C195.173431,206.107468 198.887863,203.459702 202.711731,201.013885 
	C202.875504,206.694397 203.039261,212.374924 203.125763,218.516510 
z"/>
<path fill="#276A28" opacity="1.000000" stroke="none" 
	d="
M1391.500732,182.245407 
	C1392.131836,183.383667 1392.942749,184.890503 1392.945190,186.398621 
	C1393.013306,229.186707 1393.005615,271.974915 1392.973389,314.763092 
	C1392.972412,316.049072 1392.577026,317.334717 1392.013916,318.884338 
	C1391.508057,318.515137 1391.218628,317.882111 1391.218750,317.249115 
	C1391.232300,272.370941 1391.268921,227.492752 1391.500732,182.245407 
z"/>
<path fill="#3E8A2D" opacity="1.000000" stroke="none" 
	d="
M202.758148,200.622177 
	C198.887863,203.459702 195.173431,206.107468 191.193085,208.264572 
	C189.256989,209.313828 186.823898,209.445999 184.191498,209.991150 
	C183.773682,208.190460 183.780151,206.391968 183.935013,204.294769 
	C185.000458,202.137390 185.917511,200.278732 186.834564,198.420074 
	C186.547638,198.048508 186.260727,197.676956 185.973816,197.305405 
	C191.095245,195.872162 196.216690,194.438919 201.773163,193.007233 
	C202.406967,195.416031 202.605759,197.823242 202.758148,200.622177 
z"/>
<path fill="#2B6E2B" opacity="1.000000" stroke="none" 
	d="
M1711.429810,237.563446 
	C1709.906738,233.747467 1707.825806,229.565186 1707.327393,225.202118 
	C1706.613159,218.949326 1706.701172,212.542633 1707.091431,206.241592 
	C1707.584229,198.282059 1708.725586,190.362686 1709.927246,182.156113 
	C1710.573242,189.655045 1710.986572,197.421478 1711.158813,205.193268 
	C1711.394653,215.832184 1711.447510,226.475143 1711.429810,237.563446 
z"/>
<path fill="#4E922C" opacity="1.000000" stroke="none" 
	d="
M205.030182,160.210602 
	C201.777908,159.205017 198.786316,158.099411 195.434769,156.630341 
	C197.719742,154.843033 200.364655,153.419205 203.009583,151.995392 
	C205.082062,153.393692 209.247528,152.822327 208.038193,157.747620 
	C207.132355,158.818314 206.211594,159.464432 205.030182,160.210602 
z"/>
<path fill="#286C28" opacity="1.000000" stroke="none" 
	d="
M1695.643555,335.706024 
	C1694.850586,334.433594 1694.418213,333.155121 1693.985840,331.876617 
	C1694.385620,331.579834 1694.785278,331.283020 1695.184937,330.986206 
	C1696.117065,332.050507 1697.049316,333.114777 1697.989624,334.539886 
	C1697.333252,335.167145 1696.668823,335.433563 1695.643555,335.706024 
z"/>
<path fill="#2B6E2B" opacity="1.000000" stroke="none" 
	d="
M1710.037598,180.669907 
	C1709.579346,180.065414 1709.150757,179.129333 1708.992676,178.042847 
	C1709.531250,178.707718 1709.799194,179.523010 1710.037598,180.669907 
z"/>
<path fill="#79B242" opacity="1.000000" stroke="none" 
	d="
M83.001335,212.013885 
	C87.060249,202.581787 91.487259,193.398270 97.790390,185.149246 
	C100.838539,181.160080 98.153664,175.801270 93.304214,174.984711 
	C89.239273,174.300262 88.130272,172.147873 90.622498,168.989914 
	C92.514954,166.591965 92.091591,164.853836 90.101715,162.656616 
	C101.027649,162.281738 111.419365,165.137024 121.816765,169.621979 
	C118.651833,177.265381 119.629593,184.029938 125.517410,188.936279 
	C131.694107,194.083374 129.501907,201.047363 130.109406,207.356598 
	C130.220154,208.506912 127.995026,210.132706 126.557343,211.111969 
	C125.084290,212.115295 123.194481,212.481339 121.592842,213.326691 
	C118.391663,215.016235 118.210785,217.524445 121.443901,219.097382 
	C124.912209,220.784729 126.606789,223.064163 125.623978,226.891357 
	C123.476395,226.063385 121.745956,225.068130 119.885864,224.490036 
	C112.617447,222.231125 105.308029,220.104126 97.929413,217.559357 
	C94.563461,216.455276 91.281952,215.719940 87.804253,214.715790 
	C86.072487,213.635925 84.536911,212.824905 83.001335,212.013885 
z"/>
<path fill="#86C04B" opacity="1.000000" stroke="none" 
	d="
M150.862915,82.370819 
	C153.080399,81.305794 155.354477,80.957481 157.155014,79.843643 
	C161.127762,77.386063 166.386902,78.960335 167.757248,83.958023 
	C169.899155,91.769661 174.327759,97.537643 181.432724,101.136154 
	C184.141708,102.508186 187.266357,103.059494 190.609589,104.415253 
	C190.346085,109.230652 189.674561,113.615631 188.634888,118.044373 
	C185.253799,123.124161 181.429947,122.437721 177.289841,119.662071 
	C176.743088,119.295517 176.095261,119.082283 175.536072,118.731384 
	C167.716644,113.824608 159.095993,111.581070 149.968750,111.010506 
	C150.214066,101.587090 150.459381,92.163673 150.862915,82.370819 
z"/>
<path fill="#6FA93C" opacity="1.000000" stroke="none" 
	d="
M125.981567,226.915695 
	C126.606789,223.064163 124.912209,220.784729 121.443901,219.097382 
	C118.210785,217.524445 118.391663,215.016235 121.592842,213.326691 
	C123.194481,212.481339 125.084290,212.115295 126.557343,211.111969 
	C127.995026,210.132706 130.220154,208.506912 130.109406,207.356598 
	C129.501907,201.047363 131.694107,194.083374 125.517410,188.936279 
	C119.629593,184.029938 118.651833,177.265381 122.100983,169.810074 
	C134.510361,173.444168 145.265320,179.987762 154.006317,190.464661 
	C152.377182,195.988708 149.107956,193.203201 146.205307,193.017120 
	C143.464417,192.841415 138.955444,192.538528 138.251297,193.880249 
	C136.623077,196.982666 133.558502,200.121124 135.997910,204.776001 
	C139.080002,210.657257 141.405060,217.007294 143.326447,223.375473 
	C143.823547,225.023026 141.934143,227.783524 140.491196,229.480164 
	C139.586792,230.543579 137.469833,230.575729 135.532623,231.052795 
	C132.106064,229.661896 129.043808,228.288788 125.981567,226.915695 
z"/>
<path fill="#5E9A35" opacity="1.000000" stroke="none" 
	d="
M181.780945,239.439880 
	C182.529053,242.547256 182.964890,245.464951 183.268631,248.396301 
	C183.752365,253.064758 184.148102,257.742340 183.944916,262.672607 
	C175.541702,257.156769 167.771301,251.388870 160.009827,245.608963 
	C157.984802,244.100937 155.987595,242.555557 154.233917,240.813751 
	C153.478363,237.346527 152.550812,234.063705 151.437683,230.845062 
	C148.863297,223.401199 152.081955,218.622208 159.897430,217.944351 
	C163.624771,217.621063 167.297424,216.667328 170.994858,215.999161 
	C173.432220,220.792419 176.000580,225.525070 178.256821,230.402130 
	C179.566742,233.233673 180.375259,236.297195 181.780945,239.439880 
z"/>
<path fill="#6AA339" opacity="1.000000" stroke="none" 
	d="
M171.067429,215.629242 
	C167.297424,216.667328 163.624771,217.621063 159.897430,217.944351 
	C152.081955,218.622208 148.863297,223.401199 151.437683,230.845062 
	C152.550812,234.063705 153.478363,237.346527 153.877457,240.769409 
	C149.507156,238.965591 145.749588,236.992538 141.640015,234.973297 
	C139.490982,233.641602 137.693954,232.356094 135.896927,231.070587 
	C137.469833,230.575729 139.586792,230.543579 140.491196,229.480164 
	C141.934143,227.783524 143.823547,225.023026 143.326447,223.375473 
	C141.405060,217.007294 139.080002,210.657257 135.997910,204.776001 
	C133.558502,200.121124 136.623077,196.982666 138.251297,193.880249 
	C138.955444,192.538528 143.464417,192.841415 146.205307,193.017120 
	C149.107956,193.203201 152.377182,195.988708 154.125641,190.755066 
	C161.911728,197.235001 166.930405,205.972275 171.067429,215.629242 
z"/>
<path fill="#7EBA46" opacity="1.000000" stroke="none" 
	d="
M149.942291,111.430420 
	C159.095993,111.581070 167.716644,113.824608 175.536072,118.731384 
	C176.095261,119.082283 176.743088,119.295517 177.289841,119.662071 
	C181.429947,122.437721 185.253799,123.124161 188.646622,118.382965 
	C189.053421,119.128670 189.080338,119.579544 189.076340,120.470474 
	C188.356415,126.934746 187.667404,132.958954 186.571350,138.986893 
	C178.693802,136.422379 171.104401,136.152573 163.458618,137.995834 
	C162.554977,138.213684 161.842178,139.223221 161.040924,139.865784 
	C153.860321,131.906143 151.684662,121.959023 149.942291,111.430420 
z"/>
<path fill="#6FA93C" opacity="1.000000" stroke="none" 
	d="
M161.154846,140.188080 
	C161.842178,139.223221 162.554977,138.213684 163.458618,137.995834 
	C171.104401,136.152573 178.693802,136.422379 186.580688,139.431427 
	C186.647507,144.229721 186.297928,148.587234 185.573822,153.002319 
	C183.432343,154.115097 181.665390,155.170258 179.898438,156.225433 
	C173.688553,150.987076 167.478653,145.748718 161.154846,140.188080 
z"/>
<path fill="#4E922C" opacity="1.000000" stroke="none" 
	d="
M180.091553,156.469116 
	C181.665390,155.170258 183.432343,154.115097 185.886078,153.163513 
	C188.051590,154.506393 189.530304,155.745682 191.009033,156.984985 
	C188.770248,157.473312 186.531464,157.961655 184.109619,158.792969 
	C182.712585,158.328232 181.498642,157.520508 180.091553,156.469116 
z"/>
<path fill="#6FA93C" opacity="1.000000" stroke="none" 
	d="
M82.569992,212.010437 
	C84.536911,212.824905 86.072487,213.635925 87.768829,215.070877 
	C84.112373,221.649658 84.372276,222.487000 91.042725,225.498978 
	C91.632286,225.765198 92.296547,225.865967 93.096863,226.338226 
	C95.850746,228.408401 98.433876,230.183914 100.776825,232.242889 
	C92.483986,234.598419 92.411873,234.824326 97.328560,241.965042 
	C97.794746,242.642105 98.344101,243.371597 98.484962,244.144196 
	C99.133949,247.703873 100.400063,251.810104 96.498970,254.024139 
	C93.138435,255.931381 89.211487,256.982788 85.416344,257.944427 
	C81.130638,259.030396 76.322159,258.761200 72.443802,260.579987 
	C66.705025,263.271179 61.346066,262.654114 55.645008,261.398254 
	C50.277416,260.215851 45.383965,262.586426 42.874733,267.266754 
	C36.215420,257.770630 29.556108,248.274475 23.264423,238.405533 
	C26.575031,238.373810 29.687876,238.226746 32.418854,239.177063 
	C35.994572,240.421341 38.224499,239.420975 40.757599,236.935043 
	C42.532795,235.192917 45.089138,233.675949 47.497337,233.280380 
	C51.328335,232.651123 55.385189,233.453323 59.241085,232.906555 
	C65.647842,231.998062 71.898811,230.543182 75.443298,224.018356 
	C77.825241,219.633575 77.404663,218.403763 73.165863,215.780472 
	C71.058876,214.476501 69.698593,211.965942 68.000526,210.001221 
	C72.713234,210.669800 77.425941,211.338394 82.569992,212.010437 
z"/>
<path fill="#5E9A35" opacity="1.000000" stroke="none" 
	d="
M179.996338,280.002930 
	C182.553665,282.699219 182.311996,285.491302 180.134552,288.671204 
	C179.467117,289.579651 178.947021,290.161591 178.168671,290.890625 
	C168.150467,292.745422 158.388916,294.444122 148.630905,296.162750 
	C130.933563,299.279724 113.210052,300.294922 95.358185,296.272461 
	C99.978165,293.785248 101.083084,290.090973 98.445763,284.328400 
	C102.210373,283.264557 106.233688,282.801910 109.590126,281.056671 
	C121.081322,275.081604 132.986038,269.755219 143.071793,261.363770 
	C145.321793,259.491730 147.704269,257.778961 150.394547,255.997589 
	C152.638870,256.965668 154.796173,257.604462 156.342621,258.946930 
	C164.313416,265.866272 172.127533,272.966095 179.996338,280.002930 
M141.494110,270.346069 
	C140.317581,269.563995 139.141037,268.781952 137.964508,267.999908 
	C137.735245,268.666626 137.505981,269.333313 137.276718,270.000031 
	C138.506592,270.263428 139.736481,270.526794 141.494110,270.346069 
z"/>
<path fill="#77B140" opacity="1.000000" stroke="none" 
	d="
M67.748253,209.719254 
	C69.698593,211.965942 71.058876,214.476501 73.165863,215.780472 
	C77.404663,218.403763 77.825241,219.633575 75.443298,224.018356 
	C71.898811,230.543182 65.647842,231.998062 59.241085,232.906555 
	C55.385189,233.453323 51.328335,232.651123 47.497337,233.280380 
	C45.089138,233.675949 42.532795,235.192917 40.757599,236.935043 
	C38.224499,239.420975 35.994572,240.421341 32.418854,239.177063 
	C29.687876,238.226746 26.575031,238.373810 23.172491,238.054764 
	C19.084562,229.761322 15.322869,221.500778 11.867151,213.114166 
	C8.717832,205.471161 5.900436,197.691376 2.893249,189.603302 
	C5.288908,189.180420 8.005445,188.392807 10.121296,189.193192 
	C22.071360,193.713531 33.777573,198.886948 45.770210,203.283142 
	C52.817173,205.866379 60.241421,207.420364 67.748253,209.719254 
z"/>
<path fill="#649F37" opacity="1.000000" stroke="none" 
	d="
M150.025757,255.992844 
	C147.704269,257.778961 145.321793,259.491730 143.071793,261.363770 
	C132.986038,269.755219 121.081322,275.081604 109.590126,281.056671 
	C106.233688,282.801910 102.210373,283.264557 98.445763,284.328400 
	C101.083084,290.090973 99.978165,293.785248 95.064743,295.993927 
	C81.081276,294.585022 69.212646,288.402496 58.018173,280.653015 
	C55.692532,279.043091 53.445126,277.320160 51.361832,275.331635 
	C52.040127,275.007660 52.518250,275.001404 53.325752,275.139221 
	C54.598091,275.416168 55.590057,275.807861 56.476101,275.640106 
	C62.538338,274.492279 68.549263,273.048309 74.634995,272.057861 
	C79.268181,271.303833 84.415123,272.120728 88.583801,270.410889 
	C98.978020,266.147614 108.933800,260.819122 119.091248,255.972031 
	C121.424141,254.858780 124.030785,254.238312 126.206192,252.896255 
	C128.967560,251.192734 131.417557,248.984512 134.378113,246.999146 
	C139.844849,250.000534 144.935303,252.996689 150.025757,255.992844 
z"/>
<path fill="#6AA339" opacity="1.000000" stroke="none" 
	d="
M134.001831,246.993896 
	C131.417557,248.984512 128.967560,251.192734 126.206192,252.896255 
	C124.030785,254.238312 121.424141,254.858780 119.091248,255.972031 
	C108.933800,260.819122 98.978020,266.147614 88.583801,270.410889 
	C84.415123,272.120728 79.268181,271.303833 74.634995,272.057861 
	C68.549263,273.048309 62.538338,274.492279 56.476101,275.640106 
	C55.590057,275.807861 54.598091,275.416168 53.362732,274.788605 
	C53.665512,272.193909 54.260696,270.093903 54.855881,267.993896 
	C52.243641,267.992401 49.627434,267.910828 47.021652,268.039917 
	C46.273647,268.076996 45.555782,268.722504 44.824097,269.089050 
	C44.245731,268.652039 43.667366,268.215027 42.981865,267.522369 
	C45.383965,262.586426 50.277416,260.215851 55.645008,261.398254 
	C61.346066,262.654114 66.705025,263.271179 72.443802,260.579987 
	C76.322159,258.761200 81.130638,259.030396 85.416344,257.944427 
	C89.211487,256.982788 93.138435,255.931381 96.498970,254.024139 
	C100.400063,251.810104 99.133949,247.703873 98.484962,244.144196 
	C98.344101,243.371597 97.794746,242.642105 97.328560,241.965042 
	C92.411873,234.824326 92.483986,234.598419 101.136429,232.290604 
	C110.824913,236.034058 119.913620,240.013275 129.186386,244.259125 
	C130.914246,245.348465 132.458038,246.171188 134.001831,246.993896 
z"/>
<path fill="#6DA740" opacity="1.000000" stroke="none" 
	d="
M44.991364,269.378967 
	C45.555782,268.722504 46.273647,268.076996 47.021652,268.039917 
	C49.627434,267.910828 52.243641,267.992401 54.855881,267.993896 
	C54.260696,270.093903 53.665512,272.193909 53.033348,274.644531 
	C52.518250,275.001404 52.040127,275.007660 51.203644,275.028442 
	C48.949726,273.251587 47.054176,271.460236 44.991364,269.378967 
z"/>
<path fill="#649F37" opacity="1.000000" stroke="none" 
	d="
M189.107254,120.030426 
	C189.080338,119.579544 189.053421,119.128670 189.014771,118.339203 
	C189.674561,113.615631 190.346085,109.230652 191.009109,104.422989 
	C192.134064,98.496788 193.267517,92.993263 195.065186,87.282623 
	C199.155289,87.716064 202.581177,88.356621 206.007065,88.997185 
	C206.018539,90.706970 206.030014,92.416763 206.066193,94.552307 
	C205.591095,103.464523 205.091278,111.950966 203.921844,120.556015 
	C198.537231,120.459885 193.822235,120.245155 189.107254,120.030426 
z"/>
<path fill="#6FA93C" opacity="1.000000" stroke="none" 
	d="
M206.026978,88.577408 
	C202.581177,88.356621 199.155289,87.716064 195.335876,87.018173 
	C195.433472,82.817329 195.924576,78.673828 197.155548,74.263611 
	C200.912033,74.008141 203.928680,74.019394 206.945328,74.030640 
	C206.645844,78.739632 206.346359,83.448631 206.026978,88.577408 
z"/>
<path fill="#7AB643" opacity="1.000000" stroke="none" 
	d="
M206.964722,73.560165 
	C203.928680,74.019394 200.912033,74.008141 197.440277,73.991776 
	C198.113556,68.819023 199.039658,63.592869 200.506500,58.523167 
	C200.893784,57.184586 202.949448,56.328735 204.239014,55.251225 
	C205.154251,56.699596 206.739502,58.095139 206.858643,59.606262 
	C207.211044,64.076248 206.984329,68.591904 206.964722,73.560165 
z"/>
<path fill="#5E9A35" opacity="1.000000" stroke="none" 
	d="
M276.970337,218.861938 
	C280.825256,217.102692 284.680145,215.343445 288.768799,213.318130 
	C290.069336,213.033890 291.136200,213.015732 292.754395,213.311188 
	C294.208527,216.085678 295.111328,218.546555 295.856232,221.304947 
	C291.785645,224.701508 287.872955,227.800552 283.965454,230.538788 
	C283.418213,229.052246 282.966461,227.862000 282.293762,226.813461 
	C280.571716,224.129333 278.751373,221.508240 276.970337,218.861938 
z"/>
<path fill="#79B242" opacity="1.000000" stroke="none" 
	d="
M296.014130,221.007431 
	C295.111328,218.546555 294.208527,216.085678 293.154388,213.303833 
	C299.412537,210.685867 305.822021,208.388870 312.615295,206.048691 
	C314.934296,208.787109 313.269165,210.568726 311.226715,212.181778 
	C309.709259,213.380203 308.111053,214.476471 305.957031,215.948120 
	C302.248230,217.854462 299.131165,219.430954 296.014130,221.007431 
z"/>
<path fill="#4D902A" opacity="1.000000" stroke="none" 
	d="
M276.596252,218.905273 
	C278.751373,221.508240 280.571716,224.129333 282.293762,226.813461 
	C282.966461,227.862000 283.418213,229.052246 283.687683,230.697144 
	C282.255157,232.117065 281.105530,233.017807 279.955933,233.918549 
	C277.732910,235.389511 275.509918,236.860458 273.123749,238.616684 
	C259.565613,247.582809 246.170624,256.263672 232.440933,264.997864 
	C230.842682,264.702637 229.535904,263.947754 228.323166,264.076782 
	C223.464462,264.593628 219.229294,263.481079 215.308868,260.007812 
	C218.833908,256.820587 222.723099,253.683624 226.806152,250.276657 
	C231.238480,246.904556 235.476944,243.802444 239.867294,240.409851 
	C248.514923,234.744568 256.941345,229.255188 265.541077,224.052292 
	C268.900879,222.019592 272.650238,220.630722 276.596252,218.905273 
z"/>
<path fill="#85BE4A" opacity="1.000000" stroke="none" 
	d="
M280.142944,234.263184 
	C281.105530,233.017807 282.255157,232.117065 283.682526,231.057953 
	C287.872955,227.800552 291.785645,224.701508 295.856232,221.304947 
	C299.131165,219.430954 302.248230,217.854462 305.682800,216.140289 
	C307.144257,216.552216 308.288177,217.101807 310.025909,217.936676 
	C306.063538,223.679474 302.783295,229.766693 304.748413,237.466293 
	C296.125610,239.061981 288.165649,237.431564 280.142944,234.263184 
z"/>
<path fill="#85BE4A" opacity="1.000000" stroke="none" 
	d="
M313.341858,230.995621 
	C314.391418,230.306824 315.439850,229.975632 316.488281,229.644424 
	C316.486237,230.551819 316.484222,231.459213 316.482178,232.366608 
	C315.435028,232.028809 314.387848,231.691010 313.341858,230.995621 
z"/>
<path fill="#4E922C" opacity="1.000000" stroke="none" 
	d="
M134.378113,246.999130 
	C132.458038,246.171188 130.914246,245.348465 129.335236,243.954758 
	C132.461273,241.069092 133.986755,235.986267 139.505997,237.514893 
	C140.061676,237.668808 141.150589,235.897385 141.992035,235.019470 
	C145.749588,236.992538 149.507156,238.965591 153.621155,240.982986 
	C155.987595,242.555557 157.984802,244.100937 160.009827,245.608963 
	C167.771301,251.388870 175.541702,257.156769 183.654999,262.965210 
	C184.002533,263.333984 183.908768,263.702759 184.019196,263.994171 
	C186.304810,270.026154 186.924881,275.615692 180.037491,279.646942 
	C172.127533,272.966095 164.313416,265.866272 156.342621,258.946930 
	C154.796173,257.604462 152.638870,256.965668 150.394547,255.997589 
	C144.935303,252.996689 139.844849,250.000534 134.378113,246.999130 
z"/>
<path fill="#589E2F" opacity="1.000000" stroke="none" 
	d="
M189.076340,120.470474 
	C193.822235,120.245155 198.537231,120.459885 203.636322,120.841339 
	C204.015106,121.754074 204.009781,122.500084 204.011230,123.618973 
	C204.006622,128.684280 203.995239,133.376709 203.982147,138.535583 
	C203.659729,141.376572 203.339050,143.751129 203.013123,146.957855 
	C203.014740,148.866638 203.021576,149.943268 203.028412,151.019897 
	C203.028412,151.019897 203.021240,151.507751 203.015411,151.751572 
	C200.364655,153.419205 197.719742,154.843033 195.032761,156.625366 
	C193.928864,156.987717 192.867020,156.991577 191.407104,156.990204 
	C189.530304,155.745682 188.051590,154.506393 186.260605,153.105911 
	C186.297928,148.587234 186.647507,144.229721 186.987747,139.427704 
	C187.667404,132.958954 188.356415,126.934746 189.076340,120.470474 
z"/>
<path fill="#649F37" opacity="1.000000" stroke="none" 
	d="
M203.440353,151.013977 
	C203.021576,149.943268 203.014740,148.866638 203.016418,147.386108 
	C203.355652,146.986099 203.710999,146.911682 204.013062,147.006668 
	C205.883057,147.594681 207.741043,148.220795 209.603027,148.834259 
	C207.686111,149.558853 205.769196,150.283463 203.440353,151.013977 
z"/>
<path fill="#286C28" opacity="1.000000" stroke="none" 
	d="
M1680.045654,330.393555 
	C1680.287842,330.790558 1680.285889,331.185547 1680.255615,331.578308 
	C1680.254761,331.589386 1679.948853,331.576874 1679.785034,331.575348 
	C1679.789307,331.180634 1679.793457,330.785919 1680.045654,330.393555 
z"/>
<path fill="#6DA740" opacity="1.000000" stroke="none" 
	d="
M242.466248,294.448364 
	C242.521957,294.415253 242.410538,294.481476 242.466248,294.448364 
z"/>
<path fill="#286C28" opacity="1.000000" stroke="none" 
	d="
M1701.934814,265.070068 
	C1705.209595,265.201538 1707.424194,266.298248 1706.463013,269.568115 
	C1706.072754,270.896057 1704.438232,272.076630 1703.088135,272.793060 
	C1702.572510,273.066620 1700.451294,271.829956 1700.466064,271.322571 
	C1700.526978,269.243744 1701.129639,267.180725 1701.934814,265.070068 
z"/>
<path fill="#478929" opacity="1.000000" stroke="none" 
	d="
M141.640015,234.973297 
	C141.150589,235.897385 140.061676,237.668808 139.505997,237.514893 
	C133.986755,235.986267 132.461273,241.069092 129.151184,243.688141 
	C119.913620,240.013275 110.824913,236.034058 101.376602,232.007126 
	C98.433876,230.183914 95.850746,228.408401 93.122803,225.971252 
	C94.656601,222.849091 96.335220,220.388596 98.013840,217.928101 
	C105.308029,220.104126 112.617447,222.231125 119.885864,224.490036 
	C121.745956,225.068130 123.476395,226.063385 125.623978,226.891357 
	C129.043808,228.288788 132.106064,229.661896 135.532623,231.052795 
	C137.693954,232.356094 139.490982,233.641602 141.640015,234.973297 
z"/>
<path fill="#5E9A35" opacity="1.000000" stroke="none" 
	d="
M97.929413,217.559357 
	C96.335220,220.388596 94.656601,222.849091 92.952049,225.676575 
	C92.296547,225.865967 91.632286,225.765198 91.042725,225.498978 
	C84.372276,222.487000 84.112373,221.649658 87.965012,215.339722 
	C91.281952,215.719940 94.563461,216.455276 97.929413,217.559357 
z"/>
<path fill="#649F37" opacity="1.000000" stroke="none" 
	d="
M141.230225,270.568115 
	C139.736481,270.526794 138.506592,270.263428 137.276718,270.000031 
	C137.505981,269.333313 137.735245,268.666626 137.964508,267.999908 
	C139.141037,268.781952 140.317581,269.563995 141.230225,270.568115 
z"/>
</svg>